<svg id="svg" version="1.1" xmlns="http://www.w3.org/2000/svg" xmlns:xlink="http://www.w3.org/1999/xlink" width="400" height="200" viewBox="0, 0, 400,200"><g id="svgg"><path id="path0" d="M73.035 76.142 C 71.270 76.310,71.409 73.422,71.404 109.815 L 71.400 141.730 71.863 142.165 C 72.572 142.832,88.028 142.850,88.873 142.185 L 89.400 141.771 89.400 116.985 L 89.400 92.200 89.850 91.750 L 90.300 91.300 100.100 91.300 C 109.900 91.300,110.898 91.360,112.000 92.018 C 112.165 92.116,112.930 92.518,113.700 92.910 C 115.295 93.723,116.385 94.699,117.146 95.997 C 117.435 96.491,117.839 97.031,118.043 97.197 C 118.928 97.921,119.371 103.124,118.744 105.431 C 118.226 107.334,115.707 110.304,113.800 111.259 C 113.195 111.562,112.385 112.010,112.000 112.255 C 111.315 112.691,111.132 112.702,103.200 112.816 C 95.189 112.931,93.953 113.038,93.567 113.646 C 93.479 113.786,93.405 116.676,93.403 120.070 C 93.400 126.224,93.472 126.963,94.152 127.800 C 94.196 127.855,97.128 127.963,100.666 128.040 C 109.165 128.224,111.582 128.551,112.800 129.680 C 113.185 130.037,113.755 130.487,114.067 130.680 C 114.378 130.873,114.755 131.317,114.903 131.666 C 115.051 132.015,115.410 132.615,115.700 133.000 C 117.010 134.738,117.182 136.428,117.193 147.714 C 117.202 156.904,117.251 157.220,118.753 157.624 C 119.407 157.800,121.831 157.899,126.587 157.944 C 134.494 158.020,134.389 158.038,135.264 156.431 L 135.800 155.446 135.789 147.773 C 135.783 143.553,135.697 139.425,135.597 138.600 C 135.497 137.775,135.321 136.335,135.207 135.400 C 134.868 132.635,134.213 130.205,133.650 129.628 C 133.504 129.478,133.165 128.923,132.897 128.395 C 132.477 127.566,131.779 126.703,130.256 125.133 C 129.255 124.100,127.723 122.800,127.507 122.800 C 127.372 122.800,127.001 122.571,126.681 122.292 L 126.100 121.783 126.619 121.342 C 126.904 121.099,127.843 120.405,128.705 119.800 C 130.372 118.630,132.170 116.919,132.795 115.908 C 133.004 115.570,133.439 115.098,133.763 114.859 C 134.086 114.620,134.618 113.901,134.943 113.262 C 135.269 112.623,135.765 111.687,136.045 111.183 C 136.325 110.679,136.617 109.892,136.694 109.434 C 136.772 108.976,136.917 108.551,137.017 108.489 C 137.118 108.427,137.200 108.223,137.200 108.037 C 137.200 107.850,137.414 107.293,137.676 106.798 C 138.724 104.821,138.786 96.543,137.769 94.484 C 137.502 93.943,137.165 93.095,137.021 92.600 C 136.506 90.833,136.128 89.906,135.760 89.511 C 135.555 89.290,135.159 88.630,134.882 88.043 C 134.604 87.456,134.080 86.643,133.717 86.238 C 133.354 85.832,132.833 85.140,132.558 84.700 C 132.283 84.260,131.810 83.720,131.507 83.500 C 130.818 83.000,130.528 82.726,130.062 82.133 C 129.859 81.875,129.505 81.563,129.275 81.440 C 129.046 81.318,128.503 80.920,128.068 80.557 C 127.634 80.194,126.585 79.550,125.739 79.126 C 124.893 78.702,124.200 78.286,124.200 78.201 C 124.200 77.990,122.523 77.464,121.300 77.291 C 120.750 77.213,120.210 77.083,120.100 77.001 C 119.990 76.919,119.495 76.798,119.000 76.733 C 118.505 76.667,117.695 76.506,117.200 76.376 C 116.332 76.147,75.257 75.930,73.035 76.142 M204.700 76.135 C 202.148 76.716,202.400 73.017,202.400 109.893 L 202.400 141.738 202.821 142.119 C 203.229 142.488,203.829 142.500,221.671 142.500 C 241.675 142.500,240.465 142.561,242.700 141.432 C 243.140 141.209,244.040 140.870,244.700 140.677 C 245.932 140.318,246.640 139.951,247.229 139.368 C 247.413 139.185,247.910 138.877,248.332 138.684 C 248.754 138.490,249.453 138.009,249.883 137.616 C 251.461 136.175,253.800 133.789,253.800 133.622 C 253.800 133.527,254.151 133.077,254.579 132.622 C 255.007 132.168,255.416 131.563,255.487 131.280 C 255.558 130.997,255.815 130.550,256.058 130.287 C 256.620 129.678,257.204 128.477,257.801 126.701 C 258.059 125.932,258.428 125.032,258.619 124.701 C 259.347 123.442,260.096 113.164,259.526 112.242 C 259.474 112.158,259.329 111.343,259.204 110.431 C 259.079 109.515,258.804 108.489,258.590 108.137 C 258.378 107.787,258.150 107.365,258.084 107.200 C 257.817 106.533,257.646 106.050,257.313 105.021 C 257.121 104.428,256.747 103.709,256.482 103.424 C 256.217 103.138,255.851 102.588,255.669 102.202 C 254.803 100.366,250.166 95.718,248.474 94.990 C 248.020 94.795,247.435 94.415,247.174 94.146 C 246.759 93.717,245.026 93.000,244.404 93.000 C 244.283 93.000,243.625 92.744,242.942 92.430 C 240.567 91.341,240.287 91.311,232.272 91.306 C 225.184 91.300,224.824 91.318,224.412 91.690 C 223.819 92.226,223.843 104.630,224.439 105.719 L 224.778 106.337 227.939 106.458 C 232.303 106.623,234.462 107.068,235.500 108.016 C 235.830 108.318,236.407 108.733,236.783 108.940 C 237.159 109.146,237.564 109.488,237.683 109.698 C 237.802 109.909,238.155 110.355,238.466 110.691 C 239.189 111.468,239.734 112.699,239.901 113.932 C 239.973 114.464,240.121 115.190,240.230 115.545 C 240.687 117.037,239.706 121.449,238.647 122.661 C 238.281 123.079,237.881 123.642,237.759 123.910 C 237.636 124.179,237.123 124.641,236.618 124.937 C 236.113 125.233,235.536 125.683,235.335 125.937 C 235.135 126.192,234.813 126.400,234.619 126.400 C 234.425 126.400,234.201 126.466,234.120 126.547 C 233.562 127.105,224.559 127.666,221.768 127.317 C 219.833 127.075,220.001 129.480,219.992 101.969 L 219.984 77.900 219.542 77.000 L 219.100 76.100 212.100 76.072 C 208.250 76.056,204.920 76.085,204.700 76.135 M263.961 76.494 C 262.974 77.480,263.000 76.575,263.000 110.176 L 263.000 141.806 263.650 142.210 C 264.292 142.608,264.532 142.613,282.400 142.548 C 301.631 142.479,300.759 142.523,302.900 141.495 C 303.450 141.230,304.440 140.862,305.100 140.676 C 305.760 140.490,306.750 140.006,307.300 139.601 C 307.850 139.196,308.623 138.718,309.018 138.538 C 309.413 138.359,310.140 137.827,310.634 137.356 C 311.128 136.885,311.795 136.262,312.116 135.971 C 313.393 134.813,314.559 133.425,315.004 132.536 C 315.261 132.021,315.533 131.600,315.609 131.600 C 315.831 131.600,316.772 130.082,316.923 129.480 C 317.089 128.818,317.351 128.302,317.935 127.487 C 318.175 127.153,318.522 126.209,318.706 125.390 C 318.891 124.570,319.262 123.184,319.530 122.309 C 320.412 119.436,320.599 112.520,319.822 111.511 C 319.732 111.395,319.498 110.625,319.300 109.800 C 318.635 107.016,318.188 105.613,317.918 105.456 C 317.770 105.370,317.452 104.850,317.210 104.300 C 316.306 102.241,316.190 102.033,315.693 101.572 C 315.413 101.312,315.063 100.830,314.915 100.500 C 314.403 99.360,310.444 95.728,308.851 94.938 C 308.274 94.652,307.609 94.238,307.373 94.018 C 306.954 93.627,305.401 93.000,304.852 93.000 C 304.700 93.000,304.078 92.765,303.471 92.477 C 301.276 91.439,300.767 91.378,293.287 91.258 C 283.512 91.102,284.351 90.397,284.442 98.692 C 284.529 106.550,284.374 106.272,288.782 106.478 C 292.416 106.648,295.157 107.167,295.596 107.768 C 295.782 108.022,297.353 109.200,297.507 109.200 C 297.825 109.200,298.726 110.358,299.300 111.503 C 299.630 112.161,299.957 112.745,300.028 112.800 C 301.104 113.644,301.247 118.477,300.248 120.247 C 299.892 120.878,299.600 121.484,299.600 121.593 C 299.600 122.077,298.100 124.072,297.368 124.562 C 296.925 124.858,296.234 125.377,295.832 125.717 C 294.338 126.976,293.146 127.195,287.046 127.334 L 281.993 127.448 281.299 126.712 L 280.605 125.977 280.552 101.711 L 280.500 77.445 280.000 77.012 C 278.860 76.023,278.661 76.000,271.334 76.000 L 264.455 76.000 263.961 76.494 M325.500 76.135 C 323.162 76.667,323.200 76.535,323.200 84.220 L 323.200 90.391 323.741 90.745 C 324.231 91.067,325.009 91.106,331.991 91.160 L 339.700 91.220 340.250 90.737 L 340.800 90.253 340.794 84.077 C 340.789 78.031,340.779 77.881,340.329 77.000 L 339.868 76.100 332.884 76.072 C 329.043 76.056,325.720 76.085,325.500 76.135 M163.100 91.405 C 161.341 91.545,160.194 91.803,159.731 92.162 C 159.512 92.332,158.770 92.596,156.500 93.312 C 155.950 93.485,155.320 93.792,155.100 93.994 C 154.880 94.196,154.160 94.650,153.500 95.004 C 152.840 95.357,152.255 95.710,152.200 95.788 C 152.145 95.865,151.560 96.359,150.900 96.885 C 150.240 97.411,149.179 98.395,148.543 99.071 C 147.493 100.187,147.061 100.734,145.209 103.300 C 144.891 103.740,144.578 104.362,144.514 104.683 C 144.449 105.004,144.190 105.544,143.937 105.883 C 143.218 106.847,142.802 107.883,142.502 109.453 C 142.351 110.249,142.043 111.530,141.818 112.300 C 141.040 114.966,141.067 117.881,141.900 121.200 C 142.194 122.372,142.538 123.817,142.921 125.500 C 142.996 125.830,143.312 126.424,143.622 126.820 C 143.932 127.216,144.424 128.181,144.714 128.963 C 145.011 129.765,145.385 130.432,145.571 130.491 C 145.752 130.549,146.143 131.030,146.440 131.560 C 147.371 133.221,152.436 138.101,153.837 138.687 C 154.202 138.839,154.832 139.228,155.237 139.550 C 155.959 140.124,156.527 140.368,158.850 141.102 C 159.483 141.301,160.000 141.526,160.000 141.601 C 160.000 142.530,175.341 143.015,176.650 142.127 L 177.200 141.754 177.200 135.645 C 177.200 127.390,177.271 127.518,172.600 127.309 C 168.728 127.135,166.560 126.660,165.970 125.857 C 165.822 125.655,165.241 125.198,164.679 124.842 C 163.422 124.046,163.204 123.804,162.407 122.322 C 160.583 118.926,160.700 119.306,160.700 116.794 L 160.700 114.488 161.764 112.394 C 163.069 109.825,162.991 109.923,164.700 108.690 C 167.345 106.782,168.103 106.610,174.533 106.452 C 179.338 106.334,179.516 106.358,180.373 107.235 L 181.000 107.876 181.000 124.833 L 181.000 141.790 181.650 142.145 C 182.759 142.751,196.941 142.793,197.912 142.193 L 198.600 141.767 198.594 116.934 L 198.587 92.100 198.044 91.700 C 197.471 91.278,167.828 91.028,163.100 91.405 M324.500 95.578 C 323.161 95.782,323.224 94.624,323.211 119.419 L 323.200 141.738 323.621 142.119 C 324.320 142.753,339.461 142.824,340.257 142.198 L 340.800 141.771 340.799 119.535 C 340.798 96.686,340.775 96.015,340.004 95.602 C 339.597 95.384,325.917 95.363,324.500 95.578 " stroke="none" fill="#ffffff" fill-rule="evenodd"></path></g></svg>