<svg id="svg" version="1.1" xmlns="http://www.w3.org/2000/svg" xmlns:xlink="http://www.w3.org/1999/xlink" width="400" height="143.04635761589404" viewBox="0, 0, 400,143.04635761589404"><g id="svgg"><path id="path0" d="M23.644 22.286 C 22.356 22.358,22.203 22.482,21.688 23.881 L 21.333 24.846 21.333 67.474 L 21.333 110.101 21.883 110.634 L 22.433 111.167 33.144 111.167 C 44.458 111.167,44.161 111.187,45.042 110.365 L 45.500 109.938 45.500 76.833 L 45.500 43.729 45.958 43.291 C 46.291 42.973,46.713 42.805,47.500 42.678 C 48.897 42.452,70.466 42.444,72.083 42.669 C 74.227 42.967,75.529 43.358,76.275 43.927 C 76.666 44.225,77.270 44.561,77.618 44.674 C 79.406 45.252,81.543 47.084,82.667 49.000 C 83.016 49.596,83.504 50.271,83.750 50.500 C 85.861 52.463,85.697 61.502,83.507 63.894 C 83.160 64.273,82.714 64.905,82.515 65.298 C 81.801 66.710,79.548 68.726,78.007 69.331 C 77.507 69.528,76.757 69.937,76.340 70.239 C 74.811 71.351,74.561 71.376,63.167 71.517 C 51.765 71.658,51.913 71.647,51.178 72.405 L 50.655 72.945 50.702 81.098 L 50.750 89.250 51.232 90.295 C 51.558 91.000,51.829 91.364,52.066 91.415 C 53.673 91.763,55.161 91.833,60.954 91.833 C 71.178 91.833,75.248 92.428,76.917 94.167 C 77.283 94.549,77.846 94.998,78.167 95.165 C 78.961 95.577,79.412 96.096,79.834 97.083 C 80.030 97.542,80.485 98.299,80.845 98.765 C 82.437 100.829,82.655 103.137,82.662 118.024 C 82.666 127.985,82.682 128.514,82.999 129.524 C 83.654 131.610,83.238 131.538,95.167 131.617 C 106.488 131.691,105.786 131.820,107.016 129.444 L 107.519 128.472 107.453 117.277 L 107.387 106.083 106.876 102.583 C 106.079 97.129,105.494 94.885,104.589 93.810 C 104.344 93.519,103.852 92.700,103.495 91.990 C 103.048 91.100,102.612 90.508,102.094 90.083 C 101.680 89.744,101.118 89.104,100.846 88.662 C 100.574 88.219,99.953 87.559,99.467 87.195 C 98.981 86.832,98.330 86.260,98.020 85.925 C 97.710 85.590,97.035 85.100,96.520 84.834 C 96.005 84.569,95.359 84.168,95.084 83.943 L 94.585 83.533 94.918 83.158 C 95.100 82.952,95.737 82.464,96.333 82.075 C 96.929 81.685,97.604 81.165,97.833 80.918 C 98.063 80.671,98.761 80.170,99.385 79.805 C 100.113 79.378,100.723 78.862,101.088 78.362 C 101.401 77.934,101.963 77.332,102.337 77.025 C 102.711 76.719,103.211 76.156,103.448 75.775 C 103.686 75.395,104.342 74.633,104.906 74.083 C 105.597 73.410,106.006 72.852,106.159 72.376 C 106.284 71.988,106.774 71.076,107.248 70.351 C 107.723 69.626,108.241 68.594,108.400 68.058 C 108.863 66.495,109.513 64.679,110.091 63.333 C 111.738 59.498,111.631 49.205,109.914 46.238 C 109.698 45.865,109.249 44.627,108.916 43.488 C 108.323 41.460,107.785 40.277,107.254 39.837 C 107.108 39.716,106.607 38.873,106.140 37.965 C 105.632 36.974,105.093 36.167,104.796 35.948 C 104.524 35.747,103.885 34.959,103.377 34.196 C 102.800 33.329,102.134 32.572,101.602 32.176 C 101.133 31.827,100.528 31.243,100.256 30.877 C 99.984 30.511,99.310 29.920,98.758 29.564 C 98.206 29.208,97.412 28.613,96.993 28.242 C 96.008 27.369,95.334 26.962,93.992 26.427 C 93.391 26.187,92.545 25.698,92.111 25.339 C 91.648 24.956,90.962 24.589,90.452 24.449 C 89.163 24.097,86.087 23.399,83.167 22.797 L 80.583 22.264 52.667 22.245 C 37.313 22.234,24.252 22.253,23.644 22.286 M199.917 22.245 C 199.825 22.275,199.212 22.464,198.555 22.666 C 197.384 23.026,197.352 23.050,196.972 23.892 L 196.583 24.750 196.541 67.323 L 196.498 109.896 196.936 110.353 C 197.735 111.187,197.760 111.188,222.667 111.111 C 248.503 111.032,247.343 111.086,249.976 109.852 C 250.952 109.395,252.200 108.898,252.750 108.749 C 254.337 108.318,255.497 107.816,256.272 107.225 C 256.667 106.923,257.461 106.441,258.037 106.152 C 258.612 105.864,259.540 105.205,260.099 104.689 C 260.657 104.172,261.426 103.502,261.807 103.199 C 262.188 102.896,262.500 102.545,262.500 102.419 C 262.500 102.293,262.953 101.796,263.507 101.314 C 264.060 100.833,264.779 100.002,265.103 99.468 C 265.427 98.934,265.950 98.301,266.266 98.060 C 266.627 97.785,267.050 97.178,267.409 96.421 C 267.723 95.760,268.257 94.856,268.595 94.412 C 269.372 93.395,269.885 92.360,270.245 91.083 C 270.401 90.533,270.905 89.229,271.365 88.185 C 272.403 85.831,272.751 84.179,272.993 80.462 C 273.095 78.879,273.203 77.246,273.232 76.833 C 273.487 73.223,272.372 65.792,271.363 64.375 C 271.181 64.119,270.722 62.979,270.343 61.842 C 269.790 60.183,269.525 59.633,269.002 59.067 C 268.644 58.678,268.093 57.848,267.778 57.222 C 267.462 56.596,266.928 55.821,266.591 55.500 C 266.253 55.179,265.737 54.568,265.443 54.142 C 264.074 52.155,259.940 48.345,258.392 47.643 C 257.818 47.383,256.987 46.849,256.544 46.456 C 255.895 45.879,255.437 45.652,254.162 45.276 C 252.189 44.694,251.274 44.361,249.567 43.601 C 247.513 42.685,246.143 42.586,235.553 42.585 L 226.522 42.583 226.011 43.073 L 225.500 43.562 225.500 51.847 C 225.500 59.665,225.519 60.192,225.834 61.212 C 226.304 62.733,226.137 62.673,230.367 62.842 C 237.026 63.107,239.475 63.631,240.949 65.105 C 241.258 65.414,241.874 65.851,242.317 66.075 C 243.056 66.450,244.000 67.338,244.000 67.659 C 244.000 67.732,244.470 68.316,245.045 68.958 C 246.175 70.217,246.274 70.491,247.097 74.583 C 247.696 77.566,246.668 82.809,245.173 84.400 C 244.733 84.868,244.133 85.644,243.839 86.126 C 243.442 86.775,243.045 87.153,242.300 87.590 C 241.747 87.914,240.977 88.497,240.589 88.885 C 239.205 90.269,235.561 90.834,228.036 90.832 C 221.298 90.830,221.260 90.825,220.647 89.858 L 220.167 89.101 220.167 57.250 C 220.167 21.775,220.251 24.496,219.104 22.796 L 218.737 22.250 209.410 22.221 C 204.280 22.205,200.008 22.216,199.917 22.245 M278.946 22.844 C 278.627 23.217,278.207 23.948,278.014 24.469 L 277.662 25.417 277.706 67.742 L 277.750 110.066 278.471 110.617 L 279.193 111.167 301.471 111.163 C 327.556 111.158,328.846 111.100,330.828 109.842 C 331.244 109.578,332.258 109.162,333.083 108.918 C 335.514 108.197,335.965 108.004,336.858 107.298 C 337.325 106.929,338.279 106.341,338.978 105.990 C 340.169 105.393,341.162 104.575,343.466 102.293 C 345.647 100.132,346.371 99.289,347.078 98.089 C 347.508 97.359,348.113 96.481,348.423 96.138 C 349.070 95.422,349.499 94.622,349.909 93.369 C 350.068 92.884,350.461 92.097,350.783 91.619 C 351.779 90.140,351.994 89.573,352.490 87.103 C 352.755 85.787,353.125 84.345,353.313 83.897 C 354.816 80.319,354.836 72.858,353.355 68.667 C 353.080 67.887,352.699 66.462,352.508 65.500 C 352.047 63.171,351.748 62.313,351.134 61.552 C 350.852 61.203,350.191 60.017,349.665 58.917 C 349.046 57.622,348.492 56.711,348.093 56.333 C 347.755 56.012,347.244 55.312,346.958 54.778 C 346.670 54.239,346.108 53.535,345.699 53.199 C 345.292 52.866,344.702 52.257,344.388 51.846 C 344.075 51.435,343.424 50.833,342.943 50.508 C 342.461 50.183,341.750 49.569,341.363 49.144 C 340.877 48.611,340.218 48.160,339.236 47.689 C 338.454 47.313,337.584 46.777,337.304 46.497 C 336.594 45.786,335.843 45.439,333.917 44.933 C 333.000 44.692,331.688 44.206,331.000 43.852 C 327.428 42.015,308.141 41.801,306.667 43.582 C 306.452 43.842,306.417 45.021,306.417 51.904 L 306.417 59.923 306.975 61.058 C 307.798 62.730,308.029 62.832,311.000 62.833 C 316.059 62.836,320.036 63.621,321.466 64.900 C 321.805 65.204,322.721 65.871,323.500 66.383 C 324.279 66.896,325.024 67.488,325.155 67.699 C 325.380 68.063,327.019 71.062,327.692 72.344 C 328.761 74.378,328.698 79.567,327.583 81.425 C 327.366 81.787,326.810 82.796,326.349 83.667 C 325.256 85.728,324.771 86.292,323.029 87.525 C 322.234 88.088,321.397 88.733,321.169 88.958 C 319.795 90.314,316.393 90.823,308.664 90.829 L 303.244 90.833 302.639 90.422 C 302.306 90.196,301.876 89.756,301.684 89.444 L 301.333 88.877 301.324 57.064 C 301.314 21.385,301.425 24.406,300.083 23.326 C 298.583 22.119,299.121 22.174,288.805 22.170 L 279.526 22.167 278.946 22.844 M361.583 22.246 C 361.492 22.275,360.879 22.464,360.222 22.666 C 358.200 23.287,358.260 22.983,358.204 32.874 C 358.153 41.775,358.134 41.587,359.133 41.974 C 360.743 42.599,379.790 42.801,380.696 42.204 C 381.912 41.402,381.848 41.941,381.796 32.968 C 381.746 24.160,381.724 23.965,380.648 22.597 L 380.309 22.167 371.030 22.180 C 365.926 22.187,361.675 22.217,361.583 22.246 M144.417 42.685 C 141.759 42.887,140.981 43.073,139.014 43.978 C 138.044 44.425,137.025 44.842,136.750 44.905 C 134.941 45.319,133.954 45.724,133.233 46.348 C 132.809 46.715,131.800 47.348,130.993 47.753 C 130.186 48.159,129.476 48.570,129.416 48.667 C 129.356 48.765,128.543 49.460,127.608 50.214 C 125.713 51.742,123.111 54.479,122.059 56.051 C 121.680 56.619,121.082 57.409,120.731 57.808 C 119.917 58.733,119.562 59.321,119.144 60.439 C 118.959 60.934,118.543 61.731,118.220 62.211 C 117.239 63.667,117.006 64.257,116.576 66.379 C 116.349 67.500,115.983 68.943,115.762 69.587 C 114.297 73.857,114.366 79.856,115.926 83.885 C 116.061 84.234,116.362 85.421,116.595 86.522 C 117.114 88.984,117.169 89.129,117.983 90.212 C 118.343 90.691,118.923 91.830,119.271 92.743 C 119.738 93.968,120.069 94.562,120.536 95.016 C 120.884 95.353,121.428 96.061,121.746 96.588 C 122.552 97.927,127.909 103.667,128.352 103.667 C 128.438 103.667,128.989 104.114,129.576 104.660 C 130.237 105.275,131.075 105.848,131.777 106.167 C 132.400 106.449,133.061 106.815,133.247 106.979 C 133.901 107.560,135.101 108.137,136.583 108.582 C 137.408 108.830,138.833 109.396,139.750 109.840 C 142.078 110.967,142.624 111.023,152.229 111.118 C 160.976 111.205,161.404 111.173,162.353 110.375 L 162.833 109.970 162.833 102.024 C 162.833 90.943,162.785 90.833,157.878 90.833 C 153.281 90.833,149.016 90.008,148.003 88.922 C 147.775 88.678,146.974 88.070,146.223 87.570 C 144.532 86.445,143.688 85.501,142.820 83.765 C 142.449 83.023,141.933 82.079,141.673 81.667 C 140.506 79.814,140.305 74.762,141.310 72.500 C 141.411 72.271,142.041 71.033,142.708 69.750 L 143.921 67.417 145.574 66.294 C 146.483 65.677,147.419 64.992,147.655 64.771 C 149.070 63.447,152.089 62.985,160.019 62.877 C 166.137 62.794,166.274 62.816,167.284 64.083 L 167.750 64.667 167.833 87.375 L 167.917 110.083 168.917 110.583 L 169.917 111.083 179.835 111.130 L 189.752 111.177 190.543 110.675 L 191.333 110.174 191.333 76.949 L 191.333 43.725 190.958 43.382 C 189.931 42.442,191.427 42.498,167.883 42.523 C 155.985 42.536,145.425 42.609,144.417 42.685 M359.954 48.401 C 358.046 48.811,358.186 46.272,358.175 80.760 L 358.167 109.938 358.625 110.372 C 359.403 111.109,360.290 111.167,370.780 111.167 L 380.499 111.167 381.166 110.564 L 381.833 109.961 381.822 80.939 C 381.810 49.061,381.817 49.289,380.904 48.558 L 380.417 48.168 370.667 48.181 C 363.581 48.191,360.654 48.251,359.954 48.401 " stroke="none" fill="#ffffff" fill-rule="evenodd"></path></g></svg>