<svg id="svg" version="1.1" xmlns="http://www.w3.org/2000/svg" xmlns:xlink="http://www.w3.org/1999/xlink" width="400" height="123.94366197183099" viewBox="0, 0, 400,123.94366197183099"><g id="svgg"><path id="path0" d="M9.720 4.372 C 9.632 4.488,9.359 5.043,9.113 5.604 L 8.667 6.625 8.667 52.053 L 8.667 97.481 9.062 97.941 C 9.632 98.604,10.376 98.645,22.130 98.656 C 33.107 98.667,32.987 98.676,33.786 97.808 L 34.156 97.407 34.203 62.041 L 34.250 26.674 34.685 26.239 C 35.396 25.528,36.623 25.475,50.604 25.547 C 65.445 25.624,66.518 25.723,67.370 27.093 C 67.436 27.199,68.148 27.574,68.953 27.926 C 70.854 28.758,71.149 28.969,72.258 30.302 C 72.768 30.915,73.319 31.567,73.482 31.750 C 73.645 31.933,73.978 32.429,74.224 32.851 C 74.469 33.272,74.827 33.760,75.019 33.933 C 75.641 34.497,75.829 35.112,76.119 37.534 C 76.276 38.845,76.463 39.942,76.535 39.972 C 76.729 40.054,76.695 41.833,76.500 41.833 C 76.408 41.833,76.333 42.120,76.333 42.471 C 76.333 45.048,75.721 47.244,74.682 48.394 C 74.340 48.773,73.962 49.327,73.843 49.625 C 73.724 49.923,73.573 50.167,73.508 50.167 C 73.443 50.167,73.159 50.485,72.878 50.875 C 71.814 52.345,70.945 53.077,69.373 53.824 C 68.528 54.225,67.711 54.692,67.559 54.860 C 67.406 55.029,67.184 55.167,67.064 55.167 C 66.944 55.167,66.712 55.305,66.548 55.475 C 65.895 56.149,64.756 56.223,53.250 56.343 C 41.887 56.462,41.113 56.512,40.408 57.175 L 40.000 57.558 40.002 66.321 L 40.003 75.083 40.411 75.960 C 41.145 77.536,41.980 77.667,51.344 77.667 C 55.372 77.667,58.667 77.730,58.667 77.808 C 58.667 77.885,59.623 78.080,60.792 78.240 C 65.921 78.942,66.895 79.254,68.195 80.607 C 68.623 81.053,69.352 81.717,69.816 82.083 C 70.432 82.570,70.737 82.964,70.947 83.544 C 71.105 83.980,71.513 84.676,71.855 85.089 C 72.739 86.159,73.333 88.239,73.333 90.267 C 73.333 90.746,73.399 91.164,73.480 91.194 C 73.811 91.320,74.001 97.042,74.001 106.861 C 74.000 121.492,72.484 120.000,87.351 120.000 L 97.474 120.000 98.029 119.543 C 98.766 118.934,98.934 118.724,99.421 117.797 L 99.833 117.011 99.833 105.422 C 99.833 95.122,99.797 93.458,99.504 90.458 C 99.124 86.571,98.685 83.667,98.477 83.667 C 98.398 83.667,98.333 83.511,98.333 83.320 C 98.333 82.788,97.508 80.840,96.918 79.981 C 96.627 79.558,96.183 78.733,95.929 78.147 C 95.570 77.317,95.260 76.913,94.520 76.308 C 93.958 75.848,93.405 75.208,93.161 74.733 C 92.866 74.159,92.444 73.716,91.667 73.166 C 91.071 72.744,90.409 72.132,90.195 71.806 C 89.929 71.399,89.432 71.024,88.612 70.613 C 87.955 70.283,87.167 69.804,86.861 69.548 L 86.306 69.083 87.049 68.329 C 87.459 67.914,88.084 67.426,88.438 67.245 C 88.793 67.065,89.426 66.617,89.845 66.250 C 91.067 65.181,91.347 64.977,91.930 64.734 C 92.233 64.607,92.766 64.153,93.115 63.725 C 93.833 62.843,95.172 61.500,95.332 61.500 C 95.391 61.500,95.613 61.190,95.826 60.811 C 96.039 60.432,96.690 59.636,97.273 59.041 C 97.856 58.446,98.333 57.856,98.333 57.730 C 98.333 57.603,98.392 57.500,98.463 57.500 C 98.534 57.500,98.808 56.994,99.072 56.375 C 99.336 55.756,99.717 55.025,99.919 54.750 C 100.492 53.969,101.109 52.648,101.243 51.917 C 101.309 51.551,101.423 51.213,101.496 51.167 C 101.569 51.121,101.871 50.296,102.166 49.333 C 102.462 48.371,102.816 47.365,102.954 47.098 C 104.262 44.552,104.422 33.705,103.190 30.975 C 102.547 29.548,102.029 28.067,101.830 27.083 C 101.719 26.533,101.576 26.046,101.512 26.000 C 101.448 25.954,101.220 25.429,101.005 24.833 C 100.791 24.238,100.451 23.563,100.251 23.333 C 99.608 22.597,99.212 21.935,98.947 21.151 C 98.805 20.731,98.537 20.206,98.352 19.985 C 98.167 19.764,97.637 19.140,97.174 18.599 C 96.712 18.058,96.333 17.555,96.333 17.481 C 96.333 16.932,92.519 12.936,90.993 11.886 C 90.576 11.599,89.987 11.133,89.683 10.849 C 89.380 10.565,89.040 10.333,88.928 10.333 C 88.816 10.333,88.544 10.141,88.324 9.906 C 87.769 9.316,87.031 8.884,85.938 8.507 C 85.426 8.331,84.913 8.110,84.796 8.016 C 84.679 7.922,84.316 7.622,83.989 7.349 C 82.924 6.459,79.373 5.492,75.667 5.080 C 75.071 5.014,74.546 4.908,74.500 4.845 C 74.061 4.239,10.172 3.773,9.720 4.372 M197.520 4.438 C 196.641 4.746,196.136 5.131,195.333 6.105 C 195.113 6.373,195.078 11.756,195.041 51.940 L 194.998 97.472 195.550 97.813 C 196.898 98.646,197.494 98.667,219.563 98.666 C 246.472 98.664,250.632 98.424,251.836 96.806 C 251.962 96.636,254.420 95.833,254.815 95.833 C 255.613 95.833,258.833 94.118,258.833 93.694 C 258.833 93.623,259.490 93.250,260.292 92.864 C 261.458 92.303,261.900 91.981,262.500 91.257 C 262.912 90.759,263.396 90.300,263.575 90.238 C 264.034 90.076,267.594 86.457,267.926 85.815 C 268.078 85.522,268.536 84.942,268.945 84.528 C 269.355 84.113,269.807 83.543,269.951 83.262 C 270.095 82.980,270.265 82.712,270.329 82.667 C 270.392 82.621,270.654 82.133,270.910 81.583 C 271.166 81.033,271.619 80.246,271.916 79.833 C 272.643 78.825,272.916 78.248,273.161 77.208 C 273.274 76.727,273.422 76.333,273.490 76.333 C 273.558 76.333,273.751 75.865,273.918 75.292 C 274.086 74.719,274.461 73.725,274.752 73.083 C 276.972 68.187,276.894 54.574,274.616 49.330 C 274.199 48.370,273.806 47.377,273.744 47.125 C 273.682 46.873,273.564 46.667,273.482 46.667 C 273.400 46.667,273.333 46.515,273.333 46.330 C 273.333 45.740,272.557 44.056,271.784 42.969 C 271.372 42.390,270.919 41.637,270.778 41.295 C 270.636 40.953,270.328 40.467,270.093 40.213 C 269.859 39.960,269.667 39.668,269.667 39.563 C 269.667 39.458,269.488 39.254,269.269 39.111 C 268.883 38.858,267.333 36.784,267.333 36.520 C 267.333 36.448,267.158 36.296,266.943 36.181 C 266.728 36.066,266.046 35.453,265.426 34.819 C 264.807 34.185,264.214 33.665,264.108 33.662 C 264.003 33.659,263.429 33.172,262.833 32.578 C 261.995 31.743,261.492 31.398,260.608 31.050 C 259.870 30.760,259.250 30.374,258.859 29.961 C 258.080 29.139,256.848 28.579,254.694 28.068 C 252.980 27.661,251.843 27.269,251.673 27.026 C 250.937 25.977,247.845 25.660,237.333 25.556 C 227.596 25.459,226.693 25.515,226.042 26.258 L 225.667 26.685 225.667 35.425 C 225.667 47.606,225.309 46.766,230.598 47.000 C 237.274 47.296,240.775 48.006,242.183 49.349 C 242.672 49.815,243.337 50.332,243.661 50.498 C 244.313 50.832,245.667 52.093,245.667 52.367 C 245.667 52.462,246.105 53.010,246.641 53.583 C 247.579 54.585,247.630 54.687,247.995 56.271 C 248.203 57.176,248.423 57.954,248.483 58.000 C 248.642 58.121,249.021 59.926,249.120 61.035 C 249.212 62.061,248.737 65.379,248.484 65.472 C 248.401 65.503,248.333 65.682,248.333 65.871 C 248.333 66.060,248.191 66.710,248.017 67.315 C 247.843 67.921,247.653 68.626,247.596 68.882 C 247.538 69.138,247.080 69.793,246.578 70.339 C 246.077 70.884,245.667 71.394,245.667 71.472 C 245.667 71.809,244.494 72.943,243.458 73.609 C 242.840 74.006,242.333 74.428,242.333 74.547 C 242.333 76.597,222.482 78.372,220.949 76.459 C 220.784 76.252,220.536 75.947,220.399 75.780 C 220.262 75.613,220.078 75.289,219.991 75.060 C 219.894 74.804,219.833 61.657,219.833 40.645 L 219.833 6.646 219.393 5.698 C 218.604 3.999,219.810 4.166,208.349 4.175 C 199.717 4.181,198.144 4.220,197.520 4.438 M282.950 4.308 C 282.635 4.433,282.443 4.719,281.756 6.083 L 281.337 6.917 281.335 52.141 L 281.333 97.366 281.849 97.848 C 282.781 98.719,282.017 98.695,306.833 98.620 C 334.449 98.536,336.160 98.437,337.690 96.838 C 337.841 96.681,338.891 96.312,340.024 96.019 C 342.707 95.325,343.067 95.158,344.209 94.075 C 344.736 93.576,345.288 93.167,345.435 93.167 C 345.986 93.167,347.706 92.084,348.718 91.101 C 349.294 90.541,350.028 89.884,350.350 89.641 C 351.139 89.045,352.500 87.652,352.500 87.441 C 352.500 87.347,352.856 86.927,353.292 86.509 C 354.363 85.478,354.956 84.694,355.420 83.692 C 355.634 83.230,356.109 82.527,356.474 82.131 C 356.840 81.734,357.271 81.074,357.433 80.663 C 357.595 80.253,357.772 79.879,357.827 79.833 C 357.882 79.787,358.144 79.203,358.410 78.534 C 358.675 77.865,359.074 77.078,359.296 76.784 C 359.950 75.919,360.260 75.029,360.586 73.083 C 360.755 72.075,360.939 71.212,360.994 71.167 C 361.087 71.089,361.468 69.601,362.061 67.000 C 362.916 63.244,362.761 56.963,361.748 54.307 C 361.620 53.972,361.429 53.203,361.324 52.599 C 361.219 51.995,361.074 51.500,361.003 51.500 C 360.932 51.500,360.781 50.881,360.667 50.125 C 360.381 48.221,359.928 46.946,359.087 45.671 C 358.692 45.073,358.280 44.302,358.171 43.958 C 358.063 43.615,357.905 43.333,357.820 43.333 C 357.736 43.333,357.667 43.218,357.667 43.077 C 357.667 42.653,356.994 41.464,356.322 40.699 C 355.976 40.305,355.493 39.601,355.249 39.135 C 355.006 38.669,354.316 37.797,353.716 37.197 C 353.116 36.598,352.415 35.816,352.157 35.461 C 351.900 35.105,351.253 34.523,350.720 34.167 C 350.186 33.811,349.525 33.211,349.250 32.835 C 348.792 32.208,345.908 30.514,345.265 30.495 C 345.165 30.492,344.753 30.160,344.350 29.758 C 343.444 28.856,342.957 28.642,340.346 27.994 C 338.179 27.457,337.814 27.316,337.280 26.819 C 336.914 26.478,335.239 26.056,333.250 25.804 C 330.328 25.433,313.958 25.430,313.232 25.800 C 311.821 26.520,311.924 25.809,311.858 35.282 L 311.800 43.697 312.477 45.075 C 313.409 46.975,313.460 46.999,316.452 47.004 C 321.799 47.011,326.570 47.993,328.046 49.388 C 328.552 49.867,329.181 50.369,329.442 50.502 C 331.156 51.379,331.475 51.669,332.104 52.926 C 332.446 53.608,332.779 54.167,332.844 54.167 C 332.949 54.167,333.311 54.806,334.392 56.903 C 335.441 58.936,335.364 65.206,334.269 67.042 C 334.036 67.431,333.646 68.181,333.401 68.708 C 333.157 69.235,332.903 69.667,332.839 69.667 C 332.774 69.667,332.430 70.232,332.074 70.924 C 331.473 72.092,331.332 72.242,330.092 73.038 C 329.357 73.509,328.407 74.243,327.981 74.670 C 326.362 76.289,322.284 77.009,314.083 77.125 L 308.750 77.200 307.943 76.744 C 307.499 76.493,306.918 75.986,306.651 75.619 L 306.167 74.950 306.167 41.050 C 306.167 10.183,306.143 7.102,305.898 6.617 C 305.561 5.950,304.839 5.167,304.560 5.167 C 304.445 5.167,304.290 5.064,304.217 4.939 C 303.770 4.177,303.608 4.166,293.133 4.178 C 287.697 4.185,283.115 4.243,282.950 4.308 M369.353 4.438 C 368.593 4.704,368.375 4.844,367.776 5.442 C 366.863 6.355,366.920 5.731,366.871 15.336 L 366.825 24.265 367.297 24.613 C 368.384 25.417,369.604 25.500,380.309 25.499 C 389.649 25.498,390.278 25.479,390.711 25.194 C 391.702 24.540,391.656 25.018,391.661 15.448 L 391.667 6.646 391.226 5.698 C 390.437 3.999,391.644 4.166,380.183 4.175 C 371.550 4.181,369.977 4.220,369.353 4.438 M139.417 25.761 C 136.616 26.025,134.876 26.463,134.500 26.998 C 134.313 27.264,133.625 27.505,131.654 27.998 C 128.849 28.699,128.348 28.907,127.489 29.727 C 127.083 30.115,126.263 30.645,125.667 30.904 C 124.629 31.355,123.399 32.175,122.491 33.020 C 122.256 33.238,121.512 33.867,120.836 34.417 C 120.161 34.967,119.133 35.972,118.553 36.651 C 117.973 37.330,117.203 38.139,116.841 38.449 C 116.480 38.758,115.876 39.569,115.499 40.251 C 115.123 40.933,114.553 41.707,114.233 41.970 C 113.608 42.485,113.178 43.186,112.833 44.250 C 112.425 45.506,111.538 47.250,111.031 47.789 C 110.413 48.445,110.460 48.299,109.760 51.759 C 109.446 53.312,108.991 55.483,108.748 56.583 C 107.901 60.431,107.963 62.486,109.097 68.167 C 110.358 74.482,110.479 74.897,111.312 75.790 C 111.675 76.179,112.099 76.854,112.256 77.290 C 113.156 79.801,113.408 80.331,113.939 80.832 C 114.607 81.461,115.280 82.413,115.904 83.609 C 116.174 84.127,116.606 84.636,116.994 84.893 C 117.348 85.127,117.961 85.804,118.358 86.396 C 118.754 86.989,119.288 87.598,119.544 87.749 C 119.800 87.901,120.484 88.488,121.065 89.054 C 121.646 89.620,122.409 90.308,122.761 90.583 C 123.114 90.858,123.750 91.402,124.175 91.791 C 124.611 92.189,125.455 92.706,126.106 92.975 C 126.742 93.237,127.559 93.727,127.923 94.063 C 128.703 94.785,130.220 95.535,131.500 95.832 C 133.016 96.184,134.500 96.671,134.500 96.817 C 134.500 96.949,136.042 97.688,136.762 97.901 C 138.029 98.277,142.363 98.530,149.000 98.617 L 156.250 98.712 157.167 98.327 C 157.671 98.114,158.290 97.799,158.542 97.626 L 159.000 97.311 159.000 88.805 L 159.000 80.298 158.587 79.477 C 158.360 79.025,157.847 78.332,157.446 77.936 L 156.717 77.218 153.820 77.097 C 152.227 77.031,150.397 76.875,149.753 76.750 C 149.110 76.626,147.758 76.397,146.750 76.242 C 144.519 75.900,144.008 75.701,143.113 74.828 C 142.730 74.455,141.883 73.797,141.231 73.366 C 140.076 72.604,138.833 71.597,138.833 71.424 C 138.833 71.377,138.614 70.981,138.346 70.544 C 138.078 70.107,137.700 69.345,137.506 68.851 C 137.199 68.071,136.296 66.583,135.977 66.333 C 135.383 65.869,135.375 57.952,135.968 57.504 C 136.031 57.456,136.709 56.179,137.475 54.667 L 138.866 51.917 140.804 50.620 C 141.870 49.907,142.804 49.213,142.880 49.077 C 143.232 48.449,144.700 47.965,147.242 47.638 C 151.649 47.072,152.658 47.009,157.382 47.005 C 162.604 46.999,162.587 46.996,163.958 48.325 L 164.666 49.011 164.708 73.212 L 164.750 97.413 165.900 97.998 L 167.049 98.583 177.188 98.631 C 188.296 98.683,187.600 98.738,188.963 97.702 L 189.509 97.287 189.463 62.102 C 189.437 42.750,189.359 26.804,189.290 26.666 C 189.220 26.528,188.796 26.209,188.348 25.958 L 187.534 25.500 164.642 25.520 C 147.083 25.536,141.206 25.592,139.417 25.761 M368.897 31.808 C 367.664 32.141,367.333 32.394,367.333 33.007 C 367.333 33.263,367.240 33.503,367.125 33.542 C 366.960 33.597,366.908 40.176,366.873 65.541 L 366.829 97.470 367.382 97.812 C 368.601 98.565,370.172 98.667,380.605 98.667 L 390.332 98.667 391.000 98.064 L 391.667 97.461 391.667 66.054 C 391.667 32.019,391.683 32.657,390.795 31.910 L 390.308 31.500 380.112 31.516 C 371.186 31.530,369.790 31.567,368.897 31.808 " stroke="none" fill="#070707" fill-rule="evenodd"></path></g></svg>